<svg version="1.1" xmlns="http://www.w3.org/2000/svg" viewBox="0 0 275.3 38.5" xml:space="preserve">
  <style>.st1{fill:#fff}.st2{fill:none;stroke:#fff;stroke-width:1.0193;stroke-linecap:round;stroke-linejoin:round;stroke-miterlimit:10}</style>
  <path class="st1" d="M5.9 34.6H0V11.9s0-4.3 4.3-5.7c3.9-1.2 6.5 1.3 6.5 1.3l19.4 21c1 .6 1.4 0 1.4-.6V6.2h6v22.6c0 1.9-1.6 4.3-3.9 5.2-2.3.9-4.8.9-7.8-1.6L7.7 12.6c-.5-.5-1.7-.6-1.8.4v21.6z"/>
  <path class="st1" d="M41.4 6.2h5.9v20.4c0 2.2 1.8 2.2 3.6 2.2h26.4c1.1 0 2.3-1.3 2.3-2.6 0-1.4-1.3-2.7-2.5-2.7H60c-2.9.1-9.1-2.6-9.1-8.4 0-7.1 5.8-8.6 8.5-8.8H108v6H95.8v22.5h-5.9V12.2H60.2c-2.8-.2-4.9 4.6-.2 5.3h18.3c2.8 0 7.3 2.4 7.3 8.3 0 6-3.5 8.8-7.3 8.8h-27c-4.5 0-6.1-1-7.6-2.5-1.5-1.4-1.7-2.2-2.2-5.2l-.1-20.7z"/>
  <polyline class="st2" points="113.2,0.5 113.2,5.9 117.9,9.1 113.2,12.2 113.2,38"/>
  <g style="fill:#fff;font-family:Arial,sans-serif;font-size:6.5px;font-weight:bold">
    <text x="121" y="13.5">NATIONAL INSTITUTE OF</text>
    <text x="121" y="24.5">STANDARDS AND TECHNOLOGY</text>
    <text x="121" y="34.5">U.S. DEPARTMENT OF COMMERCE</text>
  </g>
</svg>
